<svg width="300" height="158" viewBox="0 0 300 158" fill="none" xmlns="http://www.w3.org/2000/svg">
<path d="M63.9856 35.0243C63.9856 38.3 61.3207 40.965 58.0449 40.965C56.842 40.965 55.6835 40.606 54.7359 39.962C48.947 35.524 42.018 33.107 34.6967 32.9701C30.1995 32.8775 25.7319 33.6807 21.5383 35.3352C17.1929 37.049 13.299 39.6066 9.92708 42.9749C6.38857 46.5245 3.73098 50.6959 2.03576 55.3708L1.95433 55.5966C-0.440461 62.3368 1.65822 69.9801 7.18066 74.6142C7.30651 74.7216 37.7947 100.283 47.5182 108.452H47.5145L50.1832 110.691C50.52 110.991 50.8532 111.306 51.1752 111.628C55.7501 116.203 58.267 122.28 58.267 128.747C58.267 135.213 55.7501 141.294 51.1752 145.866C46.8298 150.211 41.0556 152.724 34.9077 152.943L34.0637 152.954L33.1828 152.939C26.4759 152.747 20.2058 150.396 15.0498 146.147L14.428 145.621C14.2688 145.484 14.1133 145.344 13.9616 145.207L13.3509 144.633C13.1991 144.489 13.0473 144.341 12.8956 144.189C8.10231 139.396 5.14491 133.318 4.34171 126.604C4.20106 125.423 4.12703 124.216 4.12703 123.021V121.203H0V156.803H4.12703V155.023C4.12703 151.751 6.78832 149.09 10.0603 149.09C11.2966 149.09 12.4847 149.467 13.51 150.189C19.1768 154.486 25.9392 156.862 33.0792 157.07L34.0637 157.085L35.0742 157.07C43.7872 156.814 51.9821 153.276 58.1486 147.109C64.9813 140.277 68.5976 130.82 68.0757 121.166C67.3613 107.556 59.0147 99.7095 58.0412 98.836L15.7456 63.3472C13.8172 61.6631 11.193 59.0573 10.634 55.9001C9.87897 51.6176 11.2226 47.5461 12.8956 45.8582C15.8234 42.9305 19.2471 40.68 23.0633 39.1773C26.5722 37.793 30.2698 37.0897 34.0526 37.0897C34.2451 37.0897 34.4339 37.0897 34.63 37.0971C41.0889 37.2192 47.1962 39.3549 52.293 43.2784C52.404 43.3672 53.0999 43.9224 53.2924 44.0853L54.7914 45.4326C54.9395 45.5732 55.0838 45.7176 55.2282 45.8619C60.8839 51.5139 63.9967 59.0314 63.9967 67.0301V68.8105H68.1238V33.2477H63.9967V35.028L63.9856 35.0243Z" fill="white"/>
<path d="M191.494 37.0897H195.21V152.957H191.494V157.084H213.055V152.957H209.338V37.0897H213.055V32.9626H191.494V37.0897Z" fill="white"/>
<path d="M295.74 152.957L258.929 33.6548L258.718 32.9626H244.398L250.868 53.9383L230.34 146.154C229.27 150.159 225.621 152.957 221.468 152.957H219.688V157.084H241.252V152.957H233.046L241.044 117.076H270.352L282.696 157.084H300V152.957H295.743H295.74ZM241.962 112.949L253.326 61.9L269.075 112.949H241.962Z" fill="white"/>
<path d="M182.915 31.0602C186.679 28.5951 190.773 26.5704 194.667 24.3459C198.009 22.436 201.285 20.3373 204.127 17.7242C206.963 15.1184 209.524 11.8427 209.931 7.88591C210.32 4.10681 207.884 0.745962 204.101 0.131534C200.226 -0.497699 196.432 1.22714 193.238 3.25179C185.82 7.95254 179.806 15.0296 175.035 22.3213C172.817 25.708 170.871 29.2724 169.201 32.9627H157.638V37.0897H165.518L151.246 117.543C150.913 111.239 149.688 105.028 147.167 99.11C145.69 95.6455 143.025 91.3852 138.628 92.3475C138.069 92.4697 137.466 93.1618 137.547 93.7689C139.105 105.384 145.69 115.537 148.211 126.841C148.011 129.483 147.693 132.119 147.274 134.717C146.778 137.8 146.145 140.861 145.42 143.9L111.408 33.6549L111.197 32.9627H96.8764L103.346 53.9384L82.8186 146.154C81.7489 150.159 78.0993 152.958 73.9464 152.958H72.166V157.085H93.7302V152.958H85.5243L93.5229 117.076H122.83L135.174 157.085H152.478V152.958H149.162L158.552 100.028C158.919 97.9662 159.548 95.9749 160.166 93.9725C160.166 93.9687 160.166 93.965 160.17 93.9613C162.583 85.9035 170.689 81.2286 175.471 74.7142C176.685 73.0634 177.681 71.2682 178.381 69.3398C179.043 67.5113 179.476 64.243 176.56 64.2578C175.386 64.2652 174.439 65.1128 173.687 65.9123C172.681 66.9857 171.722 68.111 170.785 69.2473C169.053 71.346 167.413 73.5261 165.885 75.7802C164.652 77.5976 163.501 79.4594 162.424 81.3619C164.067 72.3786 166.344 63.5138 169.257 54.8526C169.323 54.7379 169.379 54.6157 169.42 54.4714C169.479 54.2456 169.553 54.0235 169.616 53.7977C171.411 48.5344 173.399 43.2673 176.53 38.6406C176.889 38.1113 177.263 37.5931 177.648 37.0823H184.869V32.9553H181.12C181.712 32.315 182.319 31.682 182.93 31.0565L182.915 31.0602ZM94.4335 112.949L105.797 61.9001L121.546 112.949H94.4335Z" fill="white"/>
</svg>
